<svg width="40" height="40" viewBox="0 0 40 40" fill="none" xmlns="http://www.w3.org/2000/svg">
<path d="M40 20C40 31.0457 31.0457 40 20 40C8.9543 40 0 31.0457 0 20C0 8.9543 8.9543 0 20 0C31.0457 0 40 8.9543 40 20Z" fill="white"/>
<path d="M24.0296 28.5096C23.9128 27.22 23.9576 26.32 23.9576 25.1416C24.5416 24.8352 25.588 22.8816 25.7648 21.2312C26.224 21.1936 26.948 20.7456 27.16 18.9768C27.2744 18.0272 26.82 17.4928 26.5432 17.3248C27.2904 15.0776 28.8424 8.1256 23.6728 7.4072C23.1408 6.4728 21.7784 6 20.008 6C12.9248 6.1304 12.0704 11.3488 13.6232 17.3248C13.3472 17.4928 12.8928 18.0272 13.0064 18.9768C13.2192 20.7456 13.9424 21.1936 14.4016 21.2312C14.5776 22.8808 15.6656 24.8352 16.2512 25.1416C16.2512 26.32 16.2952 27.22 16.1784 28.5096C15.1696 31.2216 9.9888 31.4336 7 34.0488C10.1248 37.1952 15.1888 39.4456 20.5328 39.4456C25.8768 39.4456 32.1584 35.2264 33.204 34.0752C30.2336 31.436 25.0408 31.2312 24.0296 28.5096Z" fill="black"/>
</svg>
